# xmcd CD database file
#
# Track frame offsets:
#	150
#	19856
#	41742
#	64897
#	86171
#	105382
#	122012
#	145797
#	174652
#	194909
#	229353
#	255756
#	271532
#	295076
#
# Disc length: 4238 seconds
#
# Revision: 0
# Processed by: cddbd v1.5.2PL0 Copyright (c) Steve Scherf et al.
# Submitted via: CDex 1.51
#
DISCID=c6108c0e
DTITLE=Various Artist - Salsa 4 Fun Hits Vol 8
DYEAR=1900
DGENRE=Salsa
TTITLE0=Cuco Valoy - Juliana
TTITLE1=El Gran Combo - Se Nos Perdio
TTITLE2=Eddie Santiago - Enamorame De Ti
TTITLE3=Miguel Yamba - Salsa Con Candela
TTITLE4=Bajando - La Aggaro
TTITLE5=Edwin - Soy La Candela
TTITLE6=El Gran Combo - Viva Puente
TTITLE7=Grupo Gale - Tributo Al
TTITLE8=Willie Rosario - Arrependidos Pecadores
TTITLE9=Edwin - Recordando Descargas
TTITLE10=Erick - No Me La Molestes
TTITLE11=Beny More - Que Bueno Usted
TTITLE12=Gilberto Santa - Perdoname
TTITLE13=Ray Barretto - Acid
EXTD=
EXTT0=
EXTT1=
EXTT2=
EXTT3=
EXTT4=
EXTT5=
EXTT6=
EXTT7=
EXTT8=
EXTT9=
EXTT10=
EXTT11=
EXTT12=
EXTT13=
PLAYORDER=
